<?xml version="1.0" encoding="utf-8"?>
<!DOCTYPE svg PUBLIC "-//W3C//DTD SVG 1.0//EN" "http://www.w3.org/TR/2001/REC-SVG-20010904/DTD/svg10.dtd">
<svg version="1.0" xmlns="http://www.w3.org/2000/svg" width="428px" height="117px" viewBox="0 0 428 117" preserveAspectRatio="xMidYMid meet">
 <g fill="#46cfd0">
  <path d="M108.25 101.89 c-0.76 -0.06 -1.04 -0.17 -1.04 -0.41 0 -0.19 -0.39 -0.71 -0.86 -1.16 -0.47 -0.45 -0.86 -0.93 -0.86 -1.04 0 -0.32 -0.56 -0.47 -1.77 -0.47 -0.93 0 -1.16 -0.09 -1.68 -0.65 -0.32 -0.35 -0.76 -0.65 -0.95 -0.65 -0.19 0 -0.35 -0.17 -0.35 -0.43 0 -0.30 -0.24 -0.47 -0.86 -0.65 -0.63 -0.17 -0.86 -0.35 -0.86 -0.65 0 -0.24 -0.09 -0.43 -0.22 -0.43 -0.11 0 -0.22 -0.15 -0.22 -0.32 0 -0.17 -0.09 -0.32 -0.17 -0.32 -0.11 0 -0.39 -0.17 -0.63 -0.37 -0.35 -0.30 -0.45 -0.73 -0.54 -2.05 -0.11 -1.62 -0.09 -1.66 0.43 -1.79 0.88 -0.22 1.55 -0.78 2.03 -1.70 0.67 -1.27 0.63 -4.72 -0.09 -7.16 -0.47 -1.57 -2.70 -5.93 -3.19 -6.23 -0.50 -0.30 -1.19 0.30 -4.25 3.62 -1.77 1.92 -4.16 4.27 -5.31 5.22 -1.96 1.60 -2.05 1.73 -1.73 2.09 0.32 0.37 0.28 0.39 -0.82 0.39 -2.03 0 -2.93 -0.63 -8.24 -5.76 -2.63 -2.55 -5.11 -4.98 -5.52 -5.39 -0.84 -0.86 -1.19 -0.86 -3.30 -0.06 -2.55 0.95 -4.53 2.70 -9.88 8.67 -1.75 1.96 -2.16 2.31 -2.72 2.31 -0.47 0.02 -0.67 -0.09 -0.65 -0.28 0.04 -0.43 -17.37 -18.25 -17.82 -18.25 -0.28 0 -0.39 -0.17 -0.39 -0.58 0 -0.50 0.30 -0.84 1.79 -1.94 0.97 -0.73 2.55 -1.92 3.49 -2.65 2.16 -1.68 5.87 -4.12 8.43 -5.57 1.40 -0.80 2.20 -1.12 2.78 -1.12 0.71 0 0.78 0.04 0.54 0.32 -0.24 0.30 0.26 0.88 3.47 4.14 5.16 5.24 13.57 13.53 13.76 13.61 0.28 0.09 10.29 -9.92 12.21 -12.21 1.10 -1.29 1.79 -1.96 1.98 -1.88 0.17 0.06 0.65 0.11 1.06 0.11 0.67 0 0.73 0.06 0.73 0.60 0 0.32 0.11 0.71 0.26 0.86 0.32 0.32 1.04 0.35 1.04 0.02 0 -0.17 0.37 -0.22 1.19 -0.11 1.08 0.13 1.19 0.11 1.19 -0.30 0 -0.73 0.86 -1.51 1.66 -1.51 0.39 0 0.71 0.11 0.71 0.22 0 0.13 0.11 0.22 0.24 0.22 0.54 0 0.88 0.67 0.78 1.53 l-0.11 0.84 1.55 0 c0.86 0 2.18 -0.06 2.91 -0.13 l1.32 -0.15 0 -0.80 c0 -0.45 0.15 -0.93 0.32 -1.08 0.17 -0.15 0.32 -0.41 0.32 -0.56 0 -0.22 0.28 -0.30 0.84 -0.30 0.47 0 0.99 -0.15 1.19 -0.32 0.17 -0.17 0.41 -0.32 0.54 -0.32 0.13 0 0.24 -0.09 0.24 -0.22 0 -0.30 3.21 -0.28 4.06 0.02 0.67 0.24 0.67 0.24 0.37 0.84 -0.17 0.35 -0.32 0.78 -0.32 0.93 0 0.17 0.58 0.97 1.29 1.77 2.74 3 5.18 6.34 6.73 9.17 2.33 4.29 3.52 10.07 3 14.76 -0.67 6 -2.46 10.55 -5.59 14.28 -1.34 1.60 -1.40 1.62 -3.54 1.45z"/>
 </g>
 <g fill="#32c8cf">
  <path d="M99.45 108.08 c0 -0.54 -0.11 -0.86 -0.26 -0.86 -0.37 -0.02 -1.25 -0.76 -1.25 -1.06 0 -0.78 -0.56 -1.94 -0.97 -2.01 -0.37 -0.06 -0.43 -0.26 -0.50 -1.36 -0.06 -1.10 -0.15 -1.36 -0.71 -1.86 -0.35 -0.30 -0.63 -0.67 -0.63 -0.80 0 -0.15 -0.09 -0.26 -0.22 -0.26 -0.11 0 -0.22 -0.15 -0.22 -0.32 0 -0.17 -0.09 -0.32 -0.22 -0.32 -0.11 0 -0.22 -0.19 -0.22 -0.41 0 -0.24 -0.13 -0.45 -0.26 -0.50 -0.17 -0.06 -0.32 -0.73 -0.41 -1.70 -0.22 -2.42 -0.43 -3.45 -0.76 -3.58 -0.17 -0.06 -0.30 -0.43 -0.30 -0.91 0 -1.14 0.47 -1.34 3.21 -1.38 l2.29 -0.04 -0.06 0.54 c-0.06 0.43 -0.02 0.50 0.19 0.28 0.37 -0.37 0.56 -0.35 0.56 0.04 0 0.17 -0.06 0.26 -0.15 0.22 -0.06 -0.04 -0.26 0 -0.43 0.13 -0.22 0.13 -0.24 0.19 -0.04 0.19 0.13 0 0.26 0.19 0.26 0.45 0 0.28 0.09 0.39 0.26 0.28 0.15 -0.09 0.17 -0.06 0.09 0.09 -0.09 0.15 -0.30 0.26 -0.50 0.26 -0.26 0 -0.24 0.11 0.15 0.43 0.28 0.24 0.58 0.43 0.69 0.43 0.09 0 0.17 0.11 0.17 0.24 0 0.32 0.60 0.88 0.69 0.65 0.04 -0.11 0.19 -0.06 0.35 0.11 0.24 0.26 0.19 0.30 -0.19 0.30 -0.54 0 -0.39 0.26 0.19 0.35 0.97 0.13 1.29 0.35 1.16 0.78 -0.06 0.30 -0.02 0.41 0.13 0.30 0.13 -0.06 0.47 0.11 0.78 0.41 0.56 0.56 1.12 0.73 0.86 0.28 -0.11 -0.22 -0.06 -0.22 0.15 0 0.26 0.24 0.26 0.30 -0.02 0.47 -0.28 0.17 -0.26 0.22 0.06 0.22 0.19 0 0.37 -0.11 0.37 -0.24 0 -0.17 0.11 -0.17 0.32 0.02 0.17 0.15 0.50 0.22 0.73 0.15 0.22 -0.04 0.56 0 0.76 0.11 0.24 0.13 0.47 0.13 0.67 -0.04 0.24 -0.19 0.30 -0.17 0.26 0.19 0 0.24 -0.11 0.37 -0.19 0.32 -0.09 -0.06 -0.17 0 -0.17 0.11 0 0.30 0.58 0.30 0.76 0.02 0.06 -0.11 0.24 -0.22 0.39 -0.22 0.13 0 0.04 0.17 -0.22 0.37 -0.45 0.37 -0.45 0.37 0.41 1.19 0.47 0.45 0.73 0.82 0.58 0.82 -0.15 0 -0.22 0.04 -0.15 0.11 0.24 0.24 1.23 -0.15 1.12 -0.43 -0.09 -0.17 0.09 -0.26 0.50 -0.26 0.32 0 0.50 0.04 0.37 0.09 -0.28 0.09 -0.15 0.93 0.13 0.93 0.39 0 1.94 -1.73 1.94 -2.16 0 -0.26 0.11 -0.39 0.22 -0.32 0.13 0.06 0.22 0.04 0.22 -0.06 0 -0.11 0.15 -0.19 0.32 -0.19 0.45 0 0.43 0.09 -0.58 1.38 -2.50 3.26 -7.38 6.82 -11.61 8.48 l-1.08 0.43 0 -0.86z"/>
  <path d="M93.09 63.64 c-0.37 -0.41 -0.41 -0.41 -0.80 -0.06 -0.39 0.35 -0.45 0.35 -1.01 0 -0.54 -0.32 -0.65 -0.32 -0.76 -0.04 -0.15 0.41 -0.56 0.41 -0.56 0 0 -0.17 0.11 -0.32 0.26 -0.32 0.13 0 0.19 -0.06 0.13 -0.13 -0.09 -0.06 -0.39 0.04 -0.69 0.24 l-0.56 0.37 0.09 -0.67 c0.04 -0.37 0 -0.60 -0.11 -0.54 -0.11 0.06 -0.39 0 -0.63 -0.13 -0.35 -0.19 -0.39 -0.17 -0.30 0.11 0.11 0.24 0.04 0.30 -0.26 0.19 -0.32 -0.13 -0.37 -0.09 -0.15 0.13 0.37 0.39 0.11 0.84 -0.39 0.71 -0.35 -0.11 -0.39 -0.17 -0.15 -0.30 0.24 -0.15 0.24 -0.19 0 -0.19 -0.15 0 -0.43 0.15 -0.60 0.32 -0.22 0.22 -0.45 0.26 -0.69 0.13 -0.19 -0.09 -0.52 -0.13 -0.69 -0.06 -0.24 0.06 -0.22 -0.02 0.09 -0.30 0.28 -0.28 0.43 -0.32 0.50 -0.15 0.06 0.22 0.15 0.22 0.37 0 0.22 -0.19 0.17 -0.30 -0.26 -0.52 -0.63 -0.35 -0.76 -0.35 -0.58 -0.06 0.06 0.13 -0.06 0.22 -0.30 0.22 -0.24 0 -0.56 0.19 -0.73 0.43 -0.26 0.39 -0.32 0.39 -0.43 0.11 -0.09 -0.17 -0.04 -0.32 0.06 -0.32 0.13 0 0.22 -0.13 0.22 -0.28 0 -0.15 0.19 -0.39 0.43 -0.54 0.24 -0.15 0.43 -0.41 0.43 -0.58 0 -0.17 0.11 -0.32 0.26 -0.32 0.13 0 0.19 -0.06 0.13 -0.13 -0.09 -0.06 -0.35 0 -0.60 0.13 -0.39 0.19 -0.54 0.17 -0.86 -0.11 -0.39 -0.37 -0.35 -0.45 1.27 -2.57 2.14 -2.78 2.07 -2.67 1.64 -3.15 -0.35 -0.39 -0.35 -0.43 -0.02 -0.56 0.50 -0.19 2.57 -3.37 3.47 -5.31 1.06 -2.33 1.88 -5.24 1.70 -6.17 -0.13 -0.63 -0.09 -0.73 0.19 -0.63 0.76 0.28 0.91 -0.41 0.91 -4.36 0 -3.30 -0.06 -4.01 -0.50 -5.52 -0.76 -2.61 -1.62 -4.25 -3.02 -5.65 -1.60 -1.60 -3.17 -2.52 -5.93 -3.49 l-2.20 -0.78 -3.82 0 c-3.60 0 -3.84 0.02 -4.47 0.50 -0.80 0.58 -1.10 0.60 -1.83 0.02 -0.63 -0.50 -0.76 -1.40 -0.28 -2.16 0.22 -0.37 0.19 -0.47 -0.09 -0.69 -0.24 -0.17 -0.39 -0.78 -0.50 -1.90 -0.09 -0.91 -0.30 -1.92 -0.47 -2.24 -0.17 -0.32 -0.30 -0.67 -0.30 -0.78 0 -0.37 -0.86 -1.06 -1.34 -1.06 -0.82 0 -1.04 -0.30 -1.19 -1.49 -0.06 -0.65 -0.26 -1.19 -0.41 -1.25 -0.63 -0.24 -0.26 -0.69 0.84 -1.10 4.29 -1.62 7.38 -2.20 12.12 -2.35 6.08 -0.19 10.20 0.58 14.76 2.76 4.31 2.05 7.87 4.92 10.55 8.50 1.34 1.79 3.47 6 4.27 8.39 2.01 6.13 2.37 14.67 0.93 21.44 -0.50 2.29 -1.98 6.77 -3.02 9.08 -0.60 1.36 -0.71 1.49 -1.01 1.19 -0.24 -0.26 -0.37 -0.26 -0.47 -0.09 -0.13 0.19 -0.19 0.19 -0.26 0 -0.09 -0.28 -0.82 -0.52 -0.80 -0.26 0.09 0.50 -0.06 0.84 -0.35 0.84 -0.17 0 -0.32 -0.15 -0.32 -0.35 -0.02 -0.28 -0.04 -0.28 -0.24 0.04 -0.26 0.43 -0.63 0.30 -0.63 -0.24 0 -0.32 0.04 -0.32 0.24 -0.04 0.19 0.26 0.22 0.26 0.15 0.02 -0.15 -0.54 -0.60 -0.52 -0.60 0.02 0 0.37 -0.06 0.41 -0.19 0.19 -0.15 -0.24 -0.28 -0.22 -0.69 0.17 -0.28 0.26 -0.63 0.41 -0.80 0.35 -0.15 -0.04 -0.22 0 -0.15 0.11 0.17 0.28 -0.02 0.28 -0.56 0 -0.32 -0.17 -0.41 -0.15 -0.41 0.06 0 0.17 -0.15 0.43 -0.32 0.58 -0.17 0.15 -0.32 0.39 -0.32 0.52 0 0.15 0.06 0.13 0.19 -0.04 0.19 -0.32 1.34 -0.52 1.68 -0.30 0.11 0.09 0.35 0.39 0.50 0.67 0.22 0.41 0.22 0.54 -0.02 0.69 -0.15 0.09 -0.37 0.11 -0.45 0.04 -0.11 -0.04 -0.32 0.02 -0.50 0.15 -0.17 0.15 -0.32 0.19 -0.32 0.11 0 -0.09 -0.24 0 -0.54 0.19 -0.39 0.26 -0.65 0.30 -0.93 0.15 -0.24 -0.13 -0.52 -0.13 -0.76 0 -0.26 0.15 -0.37 0.13 -0.37 -0.06 0 -0.22 -0.04 -0.22 -0.19 0.02 -0.11 0.17 -0.39 0.26 -0.63 0.19 -0.24 -0.06 -0.56 -0.04 -0.71 0.06 -0.15 0.09 -0.43 0.09 -0.63 -0.02 -0.24 -0.13 -0.52 -0.09 -0.82 0.13 -0.43 0.30 -0.56 0.26 -0.52 -0.15 0.02 -0.06 -0.11 -0.13 -0.28 -0.13 -0.17 0 -0.30 0.06 -0.28 0.13 0.09 0.76 -0.24 0.86 -0.80 0.24z m-1.19 -2.05 c0 -0.11 0.09 -0.09 0.19 0.06 0.15 0.24 0.19 0.24 0.30 -0.04 0.11 -0.26 0 -0.35 -0.35 -0.35 -0.39 0 -0.41 -0.04 -0.15 -0.22 0.28 -0.17 0.26 -0.22 -0.04 -0.22 -0.22 0 -0.39 -0.13 -0.39 -0.26 0 -0.15 -0.26 0 -0.56 0.35 -0.43 0.45 -0.52 0.65 -0.30 0.78 0.37 0.24 1.29 0.15 1.29 -0.11z"/>
 </g>
 <g fill="#27c2d7">
  <path d="M87.07 109.80 c-5.41 -0.84 -11.41 -4.27 -18.85 -10.72 -0.99 -0.86 -1.92 -1.57 -2.07 -1.57 -0.17 0 -0.41 0.15 -0.58 0.35 -0.24 0.30 -0.30 0.28 -0.50 -0.11 -0.13 -0.24 -1.23 -1.36 -2.44 -2.50 -1.23 -1.14 -2.22 -2.20 -2.22 -2.35 0 -0.37 -5 -5.31 -5.39 -5.31 -0.17 -0.02 -0.54 -0.19 -0.82 -0.43 -0.43 -0.35 -0.45 -0.47 -0.22 -0.84 0.15 -0.26 0.37 -0.45 0.50 -0.47 0.11 0 1.14 -1.06 2.27 -2.31 3.67 -4.12 6.90 -7.23 8.31 -7.94 2.24 -1.16 4.29 -1.70 5.18 -1.38 0.26 0.09 2.55 2.20 5.09 4.70 2.55 2.48 5.09 4.92 5.70 5.44 1.21 1.04 2.52 1.70 3.37 1.73 0.30 0 0.73 0.22 0.97 0.45 1.42 1.60 5.41 3.58 8.35 4.19 0.76 0.15 0.67 0.54 -0.19 0.95 -0.35 0.17 -0.65 0.39 -0.69 0.50 -0.04 0.09 -0.28 0.17 -0.54 0.17 -0.63 0 -1.14 0.32 -0.82 0.52 0.13 0.09 0.24 0.43 0.24 0.80 0 0.35 0.11 0.63 0.22 0.63 0.13 0 0.22 0.35 0.22 0.76 0 0.41 0.11 0.76 0.22 0.76 0.13 0 0.22 0.28 0.22 0.63 0 0.54 0.45 1.32 1.23 2.14 0.15 0.15 0.28 0.56 0.28 0.91 0 0.35 0.15 0.76 0.30 0.93 0.58 0.56 1.21 1.88 1.21 2.48 0 0.35 0.19 0.82 0.43 1.08 0.24 0.26 0.43 0.56 0.43 0.69 0 0.11 0.19 0.22 0.43 0.22 0.35 0 0.43 0.15 0.43 0.76 0 0.41 0.11 0.76 0.22 0.76 0.13 0 0.22 0.11 0.22 0.24 0 0.35 0.56 0.84 0.95 0.84 0.37 0 0.69 0.88 0.50 1.36 -0.06 0.17 -0.86 0.47 -1.81 0.69 -1.94 0.45 -8.18 0.65 -10.29 0.32z"/>
  <path d="M333.36 46.88 c-0.15 -0.04 -0.28 -0.43 -0.28 -0.84 0 -0.71 0.02 -0.73 0.86 -0.73 0.47 0 0.86 0.04 0.86 0.09 0 0.04 -0.15 0.43 -0.32 0.86 -0.32 0.73 -0.54 0.86 -1.12 0.63z"/>
  <path d="M70.09 22.76 c-0.88 -0.76 -1.70 -1.40 -1.86 -1.40 -0.15 0 -0.37 -0.19 -0.50 -0.45 -0.39 -0.71 -1.12 -1.49 -1.42 -1.49 -0.15 0 -0.32 -0.19 -0.41 -0.41 -0.06 -0.22 -0.41 -0.52 -0.76 -0.67 -0.37 -0.15 -0.65 -0.35 -0.65 -0.43 0 -0.09 -0.17 -0.22 -0.37 -0.30 -0.82 -0.28 -1.94 -1.06 -2.80 -1.98 -0.50 -0.52 -1.01 -0.95 -1.14 -0.95 -0.11 0 -0.22 -0.19 -0.22 -0.43 0 -0.24 0.15 -0.43 0.32 -0.43 0.19 0 1.32 -0.50 2.50 -1.08 3.11 -1.57 4.12 -1.94 4.57 -1.68 0.26 0.13 0.47 0.13 0.69 -0.04 0.19 -0.15 0.32 -0.17 0.43 0 0.06 0.11 0.06 0.22 -0.04 0.22 -0.09 0 -0.02 0.11 0.15 0.24 0.28 0.19 0.28 0.22 0 0.17 -0.63 -0.06 -0.88 0.02 -0.76 0.24 0.09 0.13 0.24 0.17 0.35 0.11 0.30 -0.19 0.24 0.04 -0.15 0.41 -0.28 0.30 -0.28 0.35 -0.02 0.35 0.19 0 0.37 -0.11 0.41 -0.24 0.04 -0.15 0.19 -0.11 0.37 0.11 0.26 0.30 0.24 0.35 -0.15 0.35 -0.52 0 -0.80 0.56 -0.37 0.73 0.17 0.06 0.45 -0.04 0.65 -0.22 0.28 -0.30 0.37 -0.30 0.67 0 0.17 0.19 0.28 0.43 0.19 0.54 -0.06 0.11 -0.02 0.26 0.11 0.35 0.11 0.06 0.22 0.02 0.22 -0.11 0 -0.15 0.11 -0.13 0.30 0.04 0.22 0.19 0.22 0.32 0.06 0.43 -0.26 0.15 0.09 1.01 0.67 1.73 0.19 0.24 0.22 0.39 0.06 0.50 -0.13 0.06 -0.24 0.28 -0.24 0.45 0 0.19 0.11 0.26 0.26 0.17 0.17 -0.11 0.19 0 0.13 0.30 -0.09 0.26 -0.04 0.47 0.06 0.47 0.11 0 0.06 0.26 -0.06 0.56 -0.22 0.43 -0.19 0.58 0.04 0.73 0.17 0.11 0.39 0.13 0.47 0.09 0.11 -0.06 0.17 -0.04 0.15 0.06 -0.02 0.09 0.02 0.43 0.11 0.76 0.13 0.45 0.06 0.69 -0.30 1.08 l-0.45 0.50 0.56 0.50 c0.30 0.26 0.71 0.47 0.91 0.47 0.26 0 0.28 0.06 0.06 0.32 -0.13 0.17 -0.19 0.41 -0.11 0.54 0.09 0.13 -0.11 0.22 -0.50 0.22 -0.45 0 -1.04 -0.37 -2.22 -1.40z"/>
 </g>
 <g fill="#16c0e7">
  <path d="M50.05 57.38 c0 -0.24 -0.11 -0.43 -0.24 -0.43 -0.30 0 -1.77 -0.69 -1.92 -0.88 -0.15 -0.22 -1.29 0.02 -1.29 0.26 0 0.26 -5.76 0.26 -5.93 0 -0.06 -0.13 -1.25 -0.19 -2.65 -0.17 -1.77 0.02 -2.74 -0.06 -3.26 -0.28 -0.56 -0.22 -0.78 -0.24 -0.84 -0.04 -0.09 0.30 -1.77 0.35 -1.77 0.04 0 -0.28 -0.93 -0.28 -3.28 0.04 -1.49 0.19 -2.03 0.19 -2.35 0 -0.50 -0.32 -1.92 -0.35 -1.92 -0.04 0 0.13 -0.88 0.22 -2.24 0.22 l-2.22 0 -1.98 -2.74 c-6.26 -8.76 -8.11 -17.97 -5.63 -27.79 1.12 -4.44 3.54 -8.93 6.41 -11.89 3.37 -3.49 8.43 -6.26 13.44 -7.33 2.83 -0.60 8.43 -0.56 11.41 0.11 4.19 0.93 7.72 2.39 13.09 5.46 1.77 1.01 3.45 1.92 3.73 2.01 0.28 0.09 0.91 0.58 1.38 1.08 0.45 0.52 1.14 1.10 1.51 1.29 0.88 0.43 1.47 0.80 1.83 1.14 0.15 0.13 0.37 0.26 0.45 0.26 0.30 0 1.10 0.80 0.95 0.95 -0.06 0.06 0 0.13 0.17 0.13 0.26 0 1.77 1.45 1.79 1.73 0.02 0.06 0.09 0.09 0.15 0.06 0.09 -0.02 0.71 0.50 1.40 1.14 0.71 0.65 1.53 1.34 1.88 1.55 0.32 0.19 0.58 0.41 0.58 0.50 0 0.09 1.49 1.47 3.32 3.08 1.81 1.60 5.05 4.72 7.18 6.92 3.62 3.73 3.90 4.06 4.03 4.96 0.06 0.54 0.19 1.38 0.26 1.90 0.11 0.71 0.04 1.01 -0.22 1.29 -0.19 0.19 -0.41 0.65 -0.47 0.99 -0.11 0.52 -0.06 0.67 0.22 0.67 0.19 0 0.35 0.17 0.35 0.39 0 0.22 0.19 0.52 0.43 0.69 0.24 0.17 0.43 0.43 0.43 0.58 0 0.15 0.11 0.28 0.24 0.28 0.17 0 0.22 0.37 0.15 1.08 -0.06 0.60 -0.02 1.14 0.06 1.21 0.11 0.06 0.19 0.63 0.19 1.27 0 1.42 0.15 1.83 0.67 1.83 0.71 0 0.47 0.95 -0.69 2.67 -0.73 1.12 -1.23 1.64 -1.51 1.64 -0.24 0 -1.06 -0.47 -1.81 -1.06 -1.90 -1.47 -3.93 -2.57 -5.89 -3.21 -1.47 -0.47 -2.01 -0.54 -4.68 -0.54 -5.07 0.02 -11.48 1.55 -18.51 4.42 -1.16 0.47 -2.24 0.88 -2.42 0.91 -0.15 0.02 -0.41 0.15 -0.56 0.28 -0.32 0.24 -3.19 1.79 -3.34 1.79 -0.04 0 -0.09 -0.19 -0.09 -0.43z m-8.91 -13.57 c4.21 -1.73 11.99 -3.86 17 -4.66 1.19 -0.19 2.20 -0.39 2.24 -0.45 0.43 -0.43 -4.25 -6.28 -8.13 -10.16 -4.85 -4.90 -7.92 -6.88 -11.52 -7.53 -2.46 -0.45 -3.99 -0.28 -5.91 0.67 -2.63 1.29 -4.62 3.82 -5.41 6.86 -1.29 5.05 2.46 14.58 6.49 16.46 1.19 0.56 0.84 0.63 5.24 -1.19z"/>
 </g>
 <g fill="#1ab9e5">
  <path d="M64.09 96.99 c-0.35 -0.37 -0.47 -0.71 -0.41 -1.23 l0.06 -0.73 1.04 0.99 c0.56 0.54 1.01 1.10 1.01 1.23 0 0.47 -1.21 0.28 -1.70 -0.26z"/>
  <path d="M205.24 91.19 c-0.04 -0.15 -0.06 -10.51 -0.04 -23.02 l0.06 -22.76 6.26 0 6.26 0 0.06 23.04 0.04 23.02 -6.26 0 c-4.88 0 -6.30 -0.06 -6.39 -0.28z"/>
  <path d="M41.64 63.01 c0 -0.37 -0.13 -0.45 -0.76 -0.45 -0.43 0 -0.76 -0.11 -0.76 -0.26 0 -0.13 -0.15 -0.09 -0.39 0.11 -0.22 0.22 -0.71 0.37 -1.08 0.37 -0.39 0 -0.69 0.11 -0.69 0.22 0 0.13 -0.39 0.22 -0.86 0.22 -0.47 0 -0.86 -0.11 -0.86 -0.24 0 -0.58 -0.65 -0.84 -2.16 -0.84 -0.84 0 -1.73 -0.11 -1.96 -0.22 -0.22 -0.13 -1.38 -0.24 -2.57 -0.24 -1.21 0 -2.16 -0.09 -2.16 -0.19 0 -0.28 -1.23 -0.28 -1.40 0 -0.06 0.13 -0.60 0.22 -1.21 0.22 -0.58 0 -1.06 0.11 -1.06 0.22 0 0.13 -0.24 0.22 -0.54 0.22 -0.73 0 -2.48 -0.47 -2.48 -0.69 0 -0.09 -0.63 -0.17 -1.40 -0.17 -1.34 0 -1.42 -0.04 -1.62 -0.56 -0.22 -0.52 -0.11 -0.71 1.32 -2.29 l1.53 -1.68 -0.39 -0.60 c-0.19 -0.32 -0.65 -0.95 -0.99 -1.40 l-0.65 -0.80 0.52 -0.19 c0.50 -0.19 1.10 0 1.36 0.41 0.06 0.13 -0.06 0.22 -0.30 0.22 -0.30 0 -0.41 0.11 -0.32 0.32 0.09 0.17 0.28 0.32 0.45 0.32 0.17 0 0.24 0.11 0.17 0.22 -0.06 0.13 0.02 0.22 0.22 0.22 0.19 0 0.30 -0.09 0.24 -0.19 -0.06 -0.11 0.15 -0.24 0.50 -0.28 0.73 -0.11 1.14 0 0.97 0.28 -0.06 0.11 0 0.19 0.11 0.19 0.13 0 0.24 -0.09 0.24 -0.22 0 -0.11 0.15 -0.22 0.32 -0.22 0.17 0 0.32 0.11 0.32 0.22 0 0.13 0.15 0.22 0.32 0.22 0.17 0 0.32 -0.09 0.32 -0.22 0 -0.11 0.17 -0.22 0.39 -0.22 0.22 0 0.52 -0.13 0.67 -0.26 0.24 -0.22 0.30 -0.22 0.39 0 0.06 0.13 0.39 0.26 0.73 0.26 0.35 0 0.82 0.13 1.06 0.28 0.32 0.17 0.50 0.19 0.60 0.02 0.09 -0.13 0.52 -0.26 0.97 -0.26 1.36 -0.06 1.55 -0.11 1.68 -0.32 0.09 -0.11 0.32 -0.09 0.63 0.06 0.26 0.13 0.67 0.22 0.88 0.15 0.24 -0.06 0.56 0.04 0.76 0.24 0.28 0.26 0.37 0.28 0.52 0.04 0.26 -0.41 1.27 -0.43 2.05 -0.04 0.41 0.22 0.65 0.24 0.71 0.09 0.04 -0.15 0.32 -0.13 0.82 0.09 0.41 0.17 0.73 0.22 0.73 0.11 0 -0.24 3.39 -0.11 3.73 0.15 0.15 0.11 0.80 0.19 1.45 0.19 0.88 0 1.04 -0.04 0.65 -0.15 -0.47 -0.15 -0.45 -0.17 0.28 -0.19 0.50 -0.02 0.80 0.09 0.80 0.26 0 0.19 0.04 0.19 0.19 -0.02 0.15 -0.26 0.26 -0.26 0.67 0 0.39 0.22 0.52 0.22 0.58 0.02 0.06 -0.15 0.26 -0.28 0.43 -0.28 0.17 0 0.67 -0.28 1.08 -0.65 0.39 -0.35 0.86 -0.65 1.01 -0.65 0.15 0 0.54 -0.19 0.84 -0.43 0.32 -0.26 0.65 -0.45 0.73 -0.43 0.09 0 0.19 -0.09 0.19 -0.22 0.02 -0.11 0.04 -0.30 0.06 -0.43 0 -0.11 0.22 -0.22 0.47 -0.22 0.24 0 0.37 0.11 0.30 0.22 -0.06 0.13 0.09 0.22 0.37 0.19 0.28 0 0.37 -0.06 0.24 -0.13 -0.32 -0.13 -0.37 -0.71 -0.06 -0.71 0.13 0 0.22 0.13 0.22 0.28 0 0.17 0.06 0.15 0.22 -0.06 0.17 -0.26 0.22 -0.26 0.35 0.06 0.06 0.19 0.26 0.37 0.43 0.37 0.17 0 0.30 0.09 0.30 0.17 0 0.30 -0.78 0.93 -0.93 0.78 -0.09 -0.09 -0.35 0.09 -0.58 0.37 -0.39 0.47 -0.43 0.47 -0.37 0.09 0.02 -0.24 -0.04 -0.45 -0.17 -0.47 -0.11 -0.04 -0.24 0.04 -0.24 0.15 -0.02 0.13 -0.04 0.32 -0.06 0.43 0 0.13 -0.17 0.22 -0.37 0.22 -0.17 0 -0.47 0.15 -0.67 0.32 -0.17 0.17 -0.41 0.28 -0.52 0.22 -0.11 -0.09 -0.19 -0.04 -0.19 0.09 0 0.13 -0.15 0.17 -0.32 0.11 -0.24 -0.11 -0.28 -0.04 -0.19 0.22 0.09 0.22 0.26 0.32 0.41 0.26 0.17 -0.06 0.35 0.04 0.41 0.24 0.09 0.17 0.28 0.28 0.45 0.19 0.17 -0.06 0.32 0 0.32 0.15 0 0.17 0.09 0.13 0.22 -0.06 0.17 -0.26 0.22 -0.26 0.22 -0.02 0 0.17 0.15 0.24 0.41 0.17 0.24 -0.06 0.47 0.02 0.54 0.19 0.06 0.17 0 0.24 -0.22 0.15 -0.28 -0.11 -0.35 -0.02 -0.39 0.65 -0.02 0.13 -0.71 0.67 -1.57 1.16 -1.79 1.04 -4.57 2.85 -6.36 4.14 -1.12 0.80 -1.25 0.86 -1.25 0.47z"/>
  <path d="M52.16 56.50 c-0.19 -0.13 -0.17 -0.24 0.02 -0.50 0.24 -0.28 0.24 -0.35 -0.06 -0.35 -0.19 0 -0.35 -0.15 -0.35 -0.35 0 -0.28 0.06 -0.30 0.28 -0.11 0.17 0.13 0.37 0.17 0.43 0.09 0.09 -0.06 0.15 0 0.15 0.17 0.02 0.22 0.06 0.19 0.24 -0.06 0.11 -0.22 0.37 -0.39 0.54 -0.39 0.17 0 0.26 -0.11 0.19 -0.22 -0.09 -0.13 0.13 -0.22 0.54 -0.17 0.41 0.02 0.63 0.15 0.56 0.32 -0.06 0.13 0.02 0.28 0.19 0.32 0.15 0.04 -0.35 0.37 -1.10 0.73 -0.76 0.35 -1.51 0.58 -1.64 0.50z"/>
  <path d="M18.55 53.18 c-0.15 -0.17 -0.35 -0.28 -0.43 -0.22 -0.11 0.06 -0.37 -0.15 -0.60 -0.47 -0.69 -1.01 -0.71 -1.10 -0.28 -0.99 0.56 0.15 1.79 1.32 1.66 1.55 -0.09 0.11 0 0.26 0.13 0.30 0.17 0.09 0.19 0.13 0.04 0.13 -0.13 0.02 -0.37 -0.13 -0.52 -0.30z"/>
  <path d="M13.85 45.84 c-0.15 -0.30 -0.17 -0.52 -0.06 -0.45 0.11 0.09 0.24 0.02 0.28 -0.11 0.04 -0.13 0.19 0.02 0.35 0.35 0.15 0.30 0.17 0.52 0.06 0.45 -0.11 -0.09 -0.24 -0.02 -0.28 0.11 -0.04 0.13 -0.19 -0.02 -0.35 -0.35z"/>
 </g>
 <g fill="#1dbedd">
  <path d="M57.51 90.30 c-2.14 -2.09 -2.72 -2.78 -2.72 -3.24 0 -0.41 0.09 -0.54 0.28 -0.41 0.13 0.09 0.39 0.17 0.56 0.22 0.37 0.04 5.67 5.29 5.52 5.44 -0.06 0.04 0 0.22 0.13 0.39 0.19 0.22 0.11 0.28 -0.41 0.28 -0.54 0 -1.10 -0.45 -3.37 -2.67z"/>
  <path d="M86.46 54.90 c-0.35 -0.28 -0.60 -0.58 -0.60 -0.65 0 -0.19 0.82 -0.11 0.91 0.11 0.04 0.11 0.30 0.15 0.56 0.06 0.39 -0.09 0.43 -0.17 0.22 -0.30 -0.19 -0.13 -0.15 -0.19 0.19 -0.19 0.30 0 0.63 -0.30 1.01 -0.95 0.63 -1.06 0.76 -1.75 0.22 -1.08 -0.28 0.35 -0.32 0.35 -0.22 0.04 0.09 -0.26 0 -0.39 -0.24 -0.39 -0.19 0 -0.28 -0.06 -0.22 -0.15 0.09 -0.06 0.04 -0.26 -0.09 -0.43 -0.13 -0.15 -0.17 -0.28 -0.06 -0.28 0.11 0 -0.04 -0.15 -0.30 -0.35 -0.45 -0.30 -0.50 -0.50 -0.28 -1.60 0.02 -0.06 0.11 0.04 0.24 0.22 0.11 0.17 0.26 0.24 0.37 0.15 0.09 -0.09 0.04 -0.37 -0.11 -0.58 -0.37 -0.60 -0.56 -1.94 -0.28 -1.94 0.13 0 0.24 -0.09 0.24 -0.22 0 -0.11 -0.17 -0.13 -0.37 -0.06 -0.28 0.11 -0.32 0.04 -0.22 -0.24 0.11 -0.24 -0.04 -0.56 -0.39 -0.91 -0.30 -0.30 -0.47 -0.65 -0.41 -0.78 0.11 -0.15 0.02 -0.19 -0.19 -0.11 -0.37 0.13 -0.45 -0.04 -0.39 -0.76 0.02 -0.22 -0.06 -0.39 -0.17 -0.39 -0.13 0 -0.24 -0.30 -0.24 -0.67 0 -0.52 0.09 -0.65 0.32 -0.54 0.17 0.06 0.32 0.02 0.32 -0.11 0 -0.13 0.13 -0.37 0.30 -0.54 0.47 -0.45 0.04 -1.79 -0.86 -2.61 -0.67 -0.63 -0.99 -1.12 -0.54 -0.84 0.11 0.09 0.24 0.02 0.28 -0.11 0.06 -0.17 0.22 -0.11 0.45 0.13 0.22 0.19 0.45 0.32 0.52 0.24 0.09 -0.06 0.02 -0.26 -0.11 -0.39 -0.15 -0.15 -0.26 -0.39 -0.26 -0.56 0 -0.17 1.27 0.93 2.85 2.44 1.57 1.51 3.06 2.85 3.34 2.98 0.73 0.32 0.71 1.27 -0.06 4.01 -0.86 2.96 -2.98 7.01 -4.38 8.41 -0.56 0.56 -0.65 0.56 -1.36 -0.09z"/>
  <path d="M209.36 38.53 c-1.96 -0.60 -3.58 -2.20 -4.21 -4.12 -0.37 -1.06 -0.37 -3.37 -0.02 -4.57 0.58 -2.05 2.57 -4.03 4.62 -4.62 2.20 -0.63 5.07 -0.15 6.82 1.10 1.86 1.36 2.93 4.51 2.42 7.14 -0.37 1.79 -0.88 2.78 -1.98 3.73 -1.36 1.14 -2.87 1.64 -5 1.62 -0.97 0 -2.16 -0.13 -2.63 -0.28z"/>
  <path d="M72.72 24.44 c-0.11 -0.22 -0.56 -0.52 -1.01 -0.69 -0.45 -0.15 -1.36 -0.84 -2.05 -1.51 -2.87 -2.83 -5.16 -4.79 -5.16 -4.47 0 0.09 -0.35 -0.19 -0.76 -0.60 -0.41 -0.43 -1.06 -0.93 -1.40 -1.10 -0.37 -0.19 -0.65 -0.43 -0.65 -0.54 0 -0.13 -0.11 -0.22 -0.24 -0.22 -0.26 0 -0.67 -0.43 -1.08 -1.14 -0.43 -0.76 0.67 -0.17 1.60 0.82 0.45 0.52 1.14 1.10 1.51 1.29 0.88 0.43 1.47 0.80 1.83 1.14 0.15 0.13 0.37 0.26 0.45 0.26 0.30 0 1.10 0.80 0.95 0.95 -0.06 0.06 0 0.13 0.17 0.13 0.28 0 1.45 1.10 1.70 1.62 0.06 0.13 0.17 0.19 0.24 0.17 0.09 -0.02 0.71 0.50 1.40 1.14 0.71 0.65 1.51 1.34 1.81 1.51 0.71 0.43 1.36 1.32 1.10 1.49 -0.13 0.06 -0.30 -0.06 -0.43 -0.26z"/>
 </g>
 <g fill="#18b4eb">
  <path d="M58.29 101.93 c-0.82 -0.93 -0.95 -1.94 -0.24 -2.16 0.32 -0.11 0.39 -0.22 0.22 -0.39 -0.13 -0.13 -0.24 -0.41 -0.24 -0.63 0 -0.22 -0.09 -0.39 -0.22 -0.39 -0.13 0 -0.22 -0.60 -0.22 -1.40 0 -0.78 0.09 -1.40 0.22 -1.40 0.11 0 0.15 -0.45 0.06 -1.08 -0.11 -0.93 -0.06 -1.08 0.24 -1.08 0.28 0 0.35 -0.11 0.22 -0.47 -0.17 -0.56 -0.60 -1.04 -0.93 -1.04 -0.13 0 -0.24 -0.24 -0.24 -0.54 0 -0.32 -0.26 -0.80 -0.58 -1.14 -0.84 -0.82 -1.19 -1.57 -1.10 -2.42 0.06 -0.73 0.09 -0.71 5.20 4.34 2.80 2.80 5.11 5.20 5.11 5.33 0 0.37 -6.26 5.22 -6.73 5.22 -0.04 0 -0.39 -0.35 -0.78 -0.76z"/>
  <path d="M33.35 68.69 c-0.06 -0.19 -0.13 -0.58 -0.13 -0.86 0 -0.50 -0.06 -0.52 -1.27 -0.52 -1.62 0 -1.96 -0.13 -1.96 -0.78 0 -0.47 -0.09 -0.52 -0.99 -0.52 -0.71 0 -1.10 0.11 -1.27 0.37 -0.26 0.35 -0.41 0.35 -2.50 0 -1.23 -0.22 -3.19 -0.37 -4.34 -0.37 -1.45 0 -2.11 -0.09 -2.11 -0.24 0 -0.19 -0.54 -0.22 -1.90 -0.13 -1.83 0.13 -2.85 0.04 -2.85 -0.26 0 -0.28 2.96 -4.64 3.65 -5.41 0.39 -0.41 0.63 -0.63 0.54 -0.45 -0.13 0.24 -0.06 0.28 0.26 0.15 0.22 -0.09 0.32 -0.09 0.24 0 -0.09 0.09 -0.04 0.28 0.11 0.45 0.19 0.24 0.15 0.26 -0.15 0.15 -0.28 -0.11 -0.35 -0.09 -0.24 0.09 0.09 0.15 0.71 0.26 1.53 0.26 0.78 0 1.40 0.11 1.45 0.24 0.04 0.11 0.39 0.24 0.78 0.24 0.37 0.02 0.69 0.13 0.69 0.24 0 0.13 0.19 0 0.43 -0.28 0.26 -0.30 0.43 -0.39 0.43 -0.22 0 0.24 0.06 0.24 0.26 0.04 0.32 -0.32 0.69 -0.35 0.50 -0.04 -0.06 0.13 -0.04 0.22 0.09 0.22 0.11 0 0.26 -0.13 0.30 -0.26 0.09 -0.22 0.13 -0.19 0.13 0.02 0.02 0.22 0.09 0.24 0.30 0.04 0.43 -0.35 2.52 -0.37 2.74 -0.02 0.11 0.17 0.30 0.22 0.56 0.11 0.71 -0.30 1.60 -0.35 1.60 -0.04 0 0.17 0.09 0.15 0.22 -0.06 0.17 -0.28 0.22 -0.28 0.22 0 0 0.24 0.06 0.24 0.26 0.04 0.15 -0.15 0.37 -0.26 0.47 -0.26 0.13 0 0.09 0.11 -0.09 0.24 -0.24 0.17 -0.15 0.19 0.37 0.09 0.39 -0.09 0.73 -0.04 0.82 0.11 0.06 0.11 0.24 0.17 0.35 0.11 0.11 -0.09 0.19 -0.02 0.19 0.09 0 0.13 0.39 0.24 0.86 0.24 0.47 0 0.86 -0.09 0.86 -0.17 0 -0.09 0.19 -0.17 0.43 -0.19 0.24 -0.02 0.43 0.04 0.43 0.17 0 0.11 0.15 0.19 0.35 0.19 0.17 0 0.26 -0.09 0.19 -0.22 -0.09 -0.13 0.15 -0.22 0.58 -0.19 0.58 0 0.65 0.04 0.28 0.19 -0.24 0.11 -0.32 0.19 -0.22 0.19 0.13 0.02 0.06 0.13 -0.11 0.24 -0.28 0.17 -0.28 0.22 0.04 0.22 0.24 0 0.32 0.11 0.26 0.32 -0.09 0.17 -0.02 0.32 0.11 0.32 0.13 0 0.24 -0.13 0.24 -0.28 0 -0.15 0.19 -0.39 0.45 -0.54 0.39 -0.24 0.50 -0.24 0.69 0.04 0.24 0.30 0.32 0.28 0.86 -0.19 0.63 -0.60 1.45 -0.58 1.45 0.02 0 0.39 1.21 0.41 1.36 0.04 0.09 -0.22 0.15 -0.22 0.39 -0.02 0.22 0.22 0.22 0.37 -0.02 0.82 -0.28 0.54 -2.91 2.74 -5.03 4.23 -0.58 0.41 -0.97 0.84 -0.93 0.99 0.09 0.17 -0.06 0.28 -0.35 0.28 -0.26 0 -0.78 0.24 -1.16 0.54 -0.80 0.63 -1.49 0.69 -1.68 0.19z"/>
  <path d="M19.46 57.88 c0.50 -0.50 0.73 -0.63 0.84 -0.45 0.24 0.37 -0.60 1.23 -1.12 1.19 -0.35 -0.02 -0.30 -0.13 0.28 -0.73z"/>
 </g>
 <g fill="#20c1ce">
  <path d="M98.46 108.83 c0.06 -0.17 0.02 -0.32 -0.11 -0.32 -0.13 0 -0.15 -0.09 -0.09 -0.22 0.06 -0.11 -0.02 -0.22 -0.22 -0.22 -0.39 0 -0.97 -0.50 -0.97 -0.82 0 -0.13 -0.13 -0.26 -0.28 -0.32 -0.19 -0.06 -0.26 -0.35 -0.19 -0.78 0.09 -0.60 0.04 -0.67 -0.45 -0.67 -0.30 0 -0.60 0.13 -0.65 0.28 -0.09 0.15 -0.13 0.13 -0.13 -0.11 -0.02 -0.19 0.11 -0.41 0.26 -0.45 0.19 -0.09 0.19 -0.17 0.02 -0.30 -0.45 -0.30 -1.16 -1.75 -0.91 -1.83 0.30 -0.11 -0.52 -1.53 -1.45 -2.52 -0.71 -0.73 -0.73 -0.78 -0.28 -0.88 0.41 -0.11 0.43 -0.15 0.11 -0.45 -0.78 -0.80 -1.40 -1.94 -1.29 -2.42 0.09 -0.39 0.06 -0.41 -0.13 -0.15 -0.17 0.26 -0.24 0.09 -0.24 -0.71 0 -0.58 -0.09 -0.99 -0.19 -0.93 -0.24 0.15 -0.50 -0.47 -0.32 -0.78 0.15 -0.24 -0.56 -1.68 -0.84 -1.68 -0.09 0 -0.11 -0.11 -0.04 -0.22 0.09 -0.13 0.24 -0.17 0.35 -0.11 0.11 0.09 0.19 -0.02 0.19 -0.22 0 -0.19 0.11 -0.28 0.22 -0.22 0.13 0.06 0.22 0.02 0.22 -0.11 0 -0.13 0.11 -0.17 0.26 -0.09 0.17 0.11 0.19 0.04 0.11 -0.19 -0.09 -0.24 -0.02 -0.37 0.17 -0.37 0.19 0 0.26 0.13 0.19 0.32 -0.09 0.17 -0.06 0.32 0.02 0.32 0.06 0 0.28 -0.15 0.45 -0.32 0.19 -0.17 0.58 -0.32 0.86 -0.32 0.37 0 0.50 -0.09 0.39 -0.26 -0.11 -0.17 -0.04 -0.19 0.22 -0.11 0.22 0.09 0.93 0.17 1.60 0.19 l1.23 0.02 -1.08 0.13 c-0.67 0.09 -1.34 0.32 -1.73 0.63 -0.54 0.43 -0.56 0.52 -0.26 0.76 0.17 0.13 0.39 0.60 0.45 1.04 0.06 0.43 0.22 1.04 0.35 1.36 0.11 0.32 0.19 0.65 0.19 0.73 -0.06 0.41 0.04 0.54 0.24 0.26 0.17 -0.28 0.22 -0.28 0.22 0.02 0 0.19 -0.13 0.47 -0.30 0.60 -0.35 0.28 -0.28 1.16 0.09 1.27 0.11 0.04 0.22 0.28 0.22 0.50 0 0.24 0.11 0.37 0.22 0.30 0.13 -0.06 0.22 0.06 0.22 0.30 0 0.26 0.11 0.45 0.22 0.45 0.13 0 0.22 0.11 0.22 0.24 0 0.13 0.39 0.60 0.84 1.04 0.69 0.67 0.80 0.86 0.63 1.21 -0.17 0.28 -0.15 0.52 0.04 0.84 0.19 0.32 0.22 0.45 0.02 0.52 -0.13 0.04 -0.19 0.17 -0.11 0.28 0.06 0.11 0.30 0.11 0.56 -0.04 0.58 -0.30 0.95 0.04 0.65 0.58 -0.15 0.28 -0.13 0.56 0.11 1.01 0.17 0.35 0.26 0.67 0.19 0.73 -0.22 0.22 0.95 0.97 1.29 0.84 0.26 -0.11 0.30 -0.02 0.19 0.32 -0.11 0.30 -0.06 0.41 0.06 0.32 0.43 -0.26 0.52 0.32 0.11 0.78 -0.39 0.45 -0.39 0.45 0.11 0.35 0.84 -0.22 0.28 0.22 -0.76 0.56 -1.25 0.43 -1.45 0.43 -1.27 0.02z"/>
  <path d="M297.36 106.55 c-0.04 -0.06 0.71 -1.92 1.66 -4.10 2.63 -6.04 5.37 -12.66 5.37 -13.01 0 -0.35 -2.48 -6.62 -5.82 -14.80 -1.10 -2.67 -2.74 -6.69 -3.67 -8.95 -0.93 -2.24 -2.18 -5.31 -2.80 -6.80 -0.63 -1.49 -2.14 -5.16 -3.34 -8.13 l-2.22 -5.46 6.41 0 6.41 0 2.22 5.89 c1.21 3.21 3.78 10.07 5.70 15.23 1.92 5.13 3.58 9.36 3.71 9.38 0.22 0.02 0.97 -1.81 2.89 -7.16 0.71 -1.98 1.83 -5.05 2.50 -6.84 0.65 -1.77 2.27 -6.21 3.60 -9.86 l2.39 -6.64 6.23 0 c3.99 0 6.21 0.09 6.21 0.22 0 0.13 -0.17 0.22 -0.39 0.22 -0.58 0 -0.73 0.24 -0.35 0.54 0.30 0.19 0.30 0.35 0.11 0.71 -0.15 0.26 -1.01 2.39 -1.96 4.75 -0.93 2.33 -2.48 6.15 -3.41 8.46 -0.95 2.31 -2.57 6.30 -3.60 8.84 -1.04 2.55 -3.54 8.72 -5.54 13.70 -2.03 4.98 -4.25 10.46 -4.94 12.19 -1.40 3.49 -4.49 10.70 -4.83 11.26 -0.19 0.32 -0.84 0.37 -6.34 0.43 -3.34 0.04 -6.15 0 -6.19 -0.06z"/>
  <path d="M386.80 92.31 c-8.09 -1.34 -12.88 -7.96 -11.35 -15.73 1.21 -6.15 5.87 -10.29 13.48 -11.97 2.87 -0.65 5.80 -0.93 11.28 -1.12 l4.31 -0.13 -0.09 -2.18 c-0.17 -3.41 -0.95 -4.68 -3.73 -5.98 -3.73 -1.77 -9.99 -1.21 -17.13 1.53 -1.57 0.60 -2.89 1.08 -2.91 1.04 -0.04 -0.04 -0.28 -0.69 -0.54 -1.47 -0.28 -0.78 -1.04 -2.55 -1.70 -3.95 -1.16 -2.46 -1.19 -2.55 -0.78 -2.85 0.88 -0.71 5.72 -2.93 7.87 -3.65 9.56 -3.13 20.60 -2.07 25.69 2.46 1.62 1.42 3.04 3.60 3.86 5.82 1.32 3.62 1.32 3.52 1.49 19.95 0.11 9.15 0.26 15.49 0.41 16.07 0.11 0.54 0.22 1.04 0.24 1.14 0 0.09 -2.50 0.15 -5.59 0.15 l-5.57 0 -0.15 -2.31 c-0.09 -1.27 -0.19 -2.35 -0.24 -2.39 -0.04 -0.06 -0.58 0.32 -1.19 0.82 -2.70 2.24 -6.54 4.01 -10.07 4.64 -2.01 0.35 -5.72 0.39 -7.62 0.09z m10.46 -9.15 c2.01 -0.52 3.99 -1.57 5.22 -2.80 1.55 -1.57 2.01 -3.08 2.01 -6.71 l0 -2.67 -3.17 0 c-3.19 0 -6.86 0.37 -8.69 0.86 -2.07 0.56 -3.80 1.81 -4.59 3.32 -0.60 1.19 -0.65 3.97 -0.06 5.09 1.14 2.20 3.11 3.19 6.28 3.21 0.97 0.02 2.33 -0.13 3.02 -0.30z"/>
  <path d="M244.63 92.18 c-3.11 -0.47 -5.95 -1.64 -7.59 -3.08 -1.34 -1.16 -2.65 -3.17 -3.24 -4.94 -0.47 -1.40 -0.50 -1.60 -0.56 -15.27 l-0.06 -13.87 -3.45 0 -3.43 0 0.04 -4.79 0.06 -4.81 3.41 -0.06 3.39 -0.06 0 -6.13 0 -6.15 5.82 0 5.82 0 0 6.15 0 6.15 6.58 0 6.58 0 0 2.55 c0 1.42 -0.06 3.60 -0.15 4.85 l-0.13 2.31 -6.45 0 -6.43 0 0 10.94 c0 12.12 0.02 12.45 1.38 14.30 0.43 0.58 1.16 1.23 1.88 1.62 1.01 0.54 1.45 0.65 3.24 0.71 1.92 0.09 2.63 0 5.98 -0.76 l0.47 -0.11 0 4.53 0 4.55 -1.12 0.35 c-2.52 0.76 -5.80 1.19 -8.67 1.16 -1.55 -0.02 -3.06 -0.06 -3.37 -0.13z"/>
  <path d="M275.59 92.01 c-1.68 -0.39 -3.02 -0.86 -4.12 -1.51 -1.16 -0.69 -2.98 -2.70 -3.67 -4.06 -1.19 -2.31 -1.16 -1.70 -1.16 -31.26 l0 -27.35 6.04 0 6.04 0 0.04 25.84 0.06 25.87 0.65 1.04 c1.23 2.01 3.71 2.67 7.21 1.96 0.99 -0.22 1.83 -0.32 1.90 -0.26 0.06 0.04 0.15 2.07 0.22 4.51 l0.13 4.38 -1.70 0.37 c-0.93 0.19 -2.33 0.45 -3.11 0.58 -1.96 0.30 -6.97 0.24 -8.52 -0.11z"/>
  <path d="M340.63 68.39 l0 -23.08 5.93 0 5.93 0 0 3.56 c0 2.72 0.06 3.56 0.28 3.56 0.13 -0.02 0.80 -0.84 1.45 -1.86 2.55 -3.99 6.21 -6.02 11.33 -6.28 1.32 -0.06 3.04 -0.06 3.84 0.02 l1.45 0.17 0 6.04 c0 5.67 -0.02 6.04 -0.37 5.89 -0.22 -0.09 -1.25 -0.32 -2.33 -0.56 -7.23 -1.51 -13.29 1.75 -15.12 8.13 -0.35 1.12 -0.39 2.83 -0.47 14.39 l-0.06 13.09 -5.93 0 -5.91 0 0 -23.08z"/>
 </g>
 <g fill="#1da4ed">
  <path d="M32.47 109.78 c-10.42 -1.62 -18.66 -8.69 -21.87 -18.81 -1.08 -3.41 -1.38 -5.59 -1.25 -9.43 0.04 -1.92 0.26 -4.19 0.50 -5.33 l0.39 -2.01 0.71 0 c0.65 0 0.71 0.06 0.71 0.65 0 0.60 0.04 0.65 0.86 0.65 0.80 0 0.86 -0.04 0.86 -0.60 0 -0.76 0.67 -1.12 1.96 -1.12 0.97 0 1.34 0.26 1.57 1.14 0.17 0.69 0.56 0.78 0.56 0.13 0 -0.26 0.22 -0.65 0.47 -0.86 0.39 -0.35 0.82 -0.41 2.91 -0.41 l2.44 0 0 0.63 c0 0.91 -0.22 1.32 -0.67 1.32 -0.22 0 -0.41 0.13 -0.41 0.30 0 0.19 0.37 0.32 1.21 0.39 0.78 0.06 1.32 0.24 1.47 0.43 0.13 0.19 0.39 0.56 0.56 0.80 0.17 0.26 0.47 0.45 0.69 0.45 0.24 0 0.39 0.17 0.39 0.43 0 0.30 0.17 0.47 0.60 0.56 l0.60 0.13 -0.37 1.42 c-0.47 1.83 -0.52 4.94 -0.09 6.62 1.04 3.93 4.16 6.82 8.11 7.46 3.34 0.56 7.57 -0.60 12.02 -3.30 1.66 -0.99 1.86 -1.06 2.09 -0.76 0.15 0.22 0.37 0.37 0.52 0.37 0.26 0 0.39 4.98 0.26 9.15 -0.04 1.49 0 2.18 0.19 2.29 0.13 0.09 0.30 0.56 0.37 1.06 0.11 0.71 0.04 0.97 -0.26 1.19 -0.30 0.22 -0.39 0.54 -0.35 1.49 l0.02 1.19 -1.77 0.69 c-3.82 1.49 -5.46 1.77 -10.31 1.86 -2.44 0.02 -5 -0.02 -5.72 -0.15z"/>
  <path d="M158.99 46.55 c0 -3.95 0.06 -7.40 0.13 -7.66 0.09 -0.30 0.30 -0.50 0.54 -0.50 0.39 0 0.41 0.30 0.41 7.66 l0 7.66 -0.54 0 -0.54 0 0 -7.16z"/>
 </g>
 <g fill="#18ade8">
  <path d="M49.25 107.22 c-0.02 -0.24 0.04 -0.39 0.17 -0.32 0.26 0.17 0.24 -0.04 -0.02 -0.95 -0.13 -0.50 -0.13 -0.84 0.02 -1.01 0.15 -0.17 0.15 -0.30 -0.02 -0.41 -0.32 -0.19 -0.26 -0.60 0.06 -0.47 0.17 0.06 0.43 0.02 0.60 -0.09 0.19 -0.13 0.22 -0.19 0.04 -0.19 -0.15 0 -0.22 -0.15 -0.13 -0.37 0.09 -0.24 0.06 -0.30 -0.11 -0.19 -0.15 0.09 -0.26 0 -0.28 -0.24 -0.04 -0.50 -0.04 -2.70 0 -3.84 0.06 -1.79 0.02 -2.07 -0.30 -2.39 -0.30 -0.32 -0.26 -0.84 0.06 -0.65 0.22 0.13 0.17 -0.80 -0.04 -1.14 -0.11 -0.17 -0.09 -0.35 0.04 -0.43 0.15 -0.09 0.17 -0.26 0.04 -0.45 -0.28 -0.43 -0.26 -0.71 0 -0.54 0.30 0.19 0.26 -0.45 -0.04 -0.97 -0.24 -0.37 -0.22 -0.47 0.04 -0.65 0.28 -0.17 0.28 -0.22 -0.02 -0.22 -0.19 0 -0.43 -0.15 -0.50 -0.35 -0.06 -0.17 -0.22 -0.26 -0.35 -0.19 -0.11 0.06 -0.15 0 -0.09 -0.15 0.06 -0.15 0.76 -0.73 1.55 -1.29 0.80 -0.56 2.09 -1.60 2.87 -2.31 l1.42 -1.29 0.67 0.47 c0.37 0.26 0.80 0.71 0.95 1.01 0.15 0.30 0.41 0.71 0.58 0.93 0.17 0.19 0.24 0.37 0.17 0.37 -0.09 0 0.19 0.35 0.60 0.76 0.47 0.50 0.69 0.93 0.65 1.21 -0.06 0.32 0 0.41 0.22 0.32 0.19 -0.06 0.32 0 0.32 0.17 0 0.17 0.15 0.35 0.32 0.43 0.17 0.06 0.30 0.19 0.28 0.28 -0.02 0.09 0.09 0.43 0.26 0.76 0.24 0.50 0.22 0.63 -0.06 0.91 -0.19 0.19 -0.45 0.35 -0.58 0.35 -0.15 0 -0.11 0.24 0.11 0.65 0.17 0.35 0.32 0.78 0.32 0.97 0 0.19 0.11 0.28 0.22 0.22 0.13 -0.06 0.22 -0.04 0.22 0.06 0 0.28 -0.60 0.50 -0.69 0.26 -0.04 -0.11 -0.19 -0.11 -0.39 0.02 -0.24 0.17 -0.26 0.26 -0.04 0.35 0.13 0.04 0.26 0.28 0.26 0.50 0 0.22 -0.13 0.45 -0.26 0.50 -0.15 0.06 -0.04 0.13 0.26 0.15 0.30 0.02 0.41 0.09 0.28 0.15 -0.37 0.13 -0.35 0.60 0 0.88 0.28 0.24 0.26 1.77 -0.04 1.73 -0.58 -0.06 -0.58 0.13 -0.02 0.71 0.35 0.39 0.65 0.82 0.65 0.97 0 0.45 -6.04 3.84 -9.15 5.13 -1.06 0.43 -1.10 0.43 -1.14 -0.09z"/>
  <path d="M146.69 59.65 l0 -31.84 16.14 0.09 c14.41 0.06 16.29 0.11 17.71 0.45 7.46 1.77 11.89 5.89 13.22 12.36 0.56 2.76 0.45 6.51 -0.26 8.80 -0.95 3.08 -3.11 5.91 -6.23 8.20 -0.95 0.69 -1.75 1.34 -1.75 1.42 0 0.09 0.63 0.37 1.38 0.63 4.47 1.49 7.51 5.11 8.59 10.29 0.35 1.73 0.41 2.63 0.32 4.92 -0.17 4.83 -1.49 7.90 -4.62 10.92 -2.52 2.44 -5.63 3.97 -10.14 4.96 -2.05 0.47 -2.55 0.50 -18.23 0.56 l-16.14 0.09 0 -31.84z m29.30 20.73 c2.91 -0.73 4.96 -2.27 5.89 -4.34 0.88 -2.01 0.78 -5.44 -0.26 -7.44 -0.95 -1.90 -3.34 -3.43 -6.08 -3.90 -1.64 -0.28 -14.73 -0.19 -15.19 0.09 -0.22 0.13 -0.28 2.01 -0.28 8.18 l0 7.98 7.29 -0.11 c5.63 -0.09 7.57 -0.19 8.63 -0.45z m-1.14 -26.34 c2.05 -0.58 3.52 -1.40 4.53 -2.52 1.29 -1.45 1.73 -2.80 1.73 -5.35 -0.02 -1.73 -0.11 -2.24 -0.56 -3.24 -1.04 -2.22 -2.44 -3.39 -5.11 -4.29 -1.23 -0.43 -1.81 -0.45 -8.31 -0.45 l-6.97 0 -0.26 0.97 c-0.32 1.23 -0.37 13.91 -0.04 13.91 0.13 0 0.22 0.35 0.22 0.78 l0 0.78 6.75 -0.11 c5.48 -0.09 6.97 -0.17 8.02 -0.47z"/>
  <path d="M26.32 79.78 c0 -0.11 -0.26 -0.17 -0.58 -0.19 -0.54 0 -0.56 -0.02 -0.17 -0.19 0.28 -0.13 0.32 -0.19 0.11 -0.19 -0.28 -0.02 -0.28 -0.04 0 -0.26 0.26 -0.17 0.24 -0.19 -0.15 -0.15 -0.26 0.04 -0.47 -0.02 -0.47 -0.11 0 -0.11 -0.19 -0.37 -0.43 -0.56 -0.24 -0.22 -0.39 -0.45 -0.30 -0.52 0.06 -0.09 -0.15 -0.24 -0.47 -0.37 -0.43 -0.15 -0.67 -0.15 -0.88 0.02 -0.22 0.17 -0.30 0.17 -0.30 0 0 -0.13 -0.06 -0.22 -0.15 -0.22 -0.52 0.09 -1.14 -0.04 -1.04 -0.22 0.19 -0.32 -0.32 -0.52 -0.65 -0.24 -0.26 0.22 -0.37 0.15 -0.56 -0.30 -0.19 -0.41 -0.19 -0.65 -0.04 -0.80 0.30 -0.30 1.21 -0.02 1.01 0.28 -0.11 0.15 -0.04 0.17 0.13 0.06 0.24 -0.13 0.22 -0.22 -0.04 -0.41 -0.17 -0.13 -0.37 -0.41 -0.45 -0.60 -0.13 -0.37 -1.01 -0.47 -0.95 -0.11 0.02 0.11 -0.09 0.26 -0.22 0.30 -0.15 0.06 -0.28 -0.06 -0.28 -0.26 0 -0.26 -0.11 -0.32 -0.35 -0.24 -0.19 0.06 -0.39 0.13 -0.43 0.13 -0.04 0 -0.09 0.15 -0.09 0.35 0 0.17 -0.09 0.26 -0.22 0.19 -0.11 -0.06 -0.15 0 -0.09 0.17 0.06 0.19 0.28 0.28 0.54 0.22 0.22 -0.06 0.41 -0.02 0.41 0.11 0 0.11 0.22 0.26 0.47 0.32 0.45 0.13 0.45 0.15 0.06 0.58 -0.39 0.43 -0.88 0.60 -0.65 0.22 0.06 -0.11 0.04 -0.22 -0.09 -0.22 -0.11 0 -0.28 0.11 -0.35 0.22 -0.06 0.13 -0.30 0.22 -0.50 0.22 -0.30 0 -0.28 -0.04 0.06 -0.30 0.24 -0.15 0.63 -0.35 0.86 -0.41 0.24 -0.06 0 -0.11 -0.54 -0.09 -0.76 0.04 -0.97 0.13 -0.95 0.41 0.02 0.22 -0.17 0.39 -0.50 0.45 -0.39 0.06 -0.50 0.02 -0.39 -0.24 0.09 -0.26 0.06 -0.26 -0.19 -0.06 -0.24 0.19 -0.32 0.19 -0.41 -0.02 -0.09 -0.19 -0.13 -0.19 -0.13 0.04 -0.02 0.24 -0.17 0.17 -0.47 -0.22 -0.24 -0.30 -0.39 -0.41 -0.30 -0.26 0.06 0.13 0.02 0.26 -0.09 0.26 -0.13 0 -0.24 0.15 -0.24 0.32 0 0.43 -0.22 0.41 -0.56 -0.04 -0.28 -0.37 -0.28 -0.37 -0.30 0.04 -0.02 0.43 -0.02 0.43 -0.32 0.02 -0.17 -0.24 -0.39 -0.37 -0.45 -0.28 -0.09 0.09 -0.28 -0.02 -0.43 -0.24 -0.26 -0.35 -0.30 -0.32 -0.69 0.13 -0.41 0.47 -0.43 0.47 -0.54 0.04 -0.06 -0.28 -0.30 -0.43 -0.63 -0.43 -0.28 0 -0.39 -0.09 -0.26 -0.17 0.11 -0.09 0.22 -0.37 0.22 -0.63 0 -0.69 -0.22 -0.37 -0.73 1.12 -0.54 1.51 -0.60 0.97 -0.17 -1.12 0.50 -2.31 1.79 -5.80 3.08 -8.31 1.16 -2.24 1.21 -2.29 1.79 -2.11 0.41 0.11 0.80 0.06 1.19 -0.13 0.32 -0.17 0.84 -0.30 1.16 -0.28 l0.56 0.02 -0.54 0.17 c-0.41 0.13 -0.19 0.17 0.82 0.19 0.73 0.02 1.34 0.11 1.34 0.19 0 0.11 0.93 0.19 2.05 0.19 1.34 0 2.05 -0.09 2.05 -0.24 0 -0.13 0.11 -0.09 0.22 0.09 0.13 0.22 0.22 0.24 0.22 0.06 0 -0.15 0.11 -0.28 0.22 -0.28 0.13 0 0.22 0.15 0.22 0.32 0 0.30 0.71 0.43 1.77 0.35 0.19 -0.02 0.41 0.06 0.50 0.19 0.22 0.35 0.54 0.04 0.39 -0.37 -0.11 -0.28 -0.02 -0.32 0.54 -0.24 0.39 0.04 0.69 0.02 0.69 -0.04 0 -0.09 0.24 -0.15 0.54 -0.15 0.30 0 0.54 0.11 0.54 0.24 0 0.13 0.11 0.09 0.22 -0.09 0.13 -0.22 0.22 -0.24 0.22 -0.04 0 0.17 0.35 0.26 0.97 0.26 0.93 0 0.97 0.02 0.76 0.43 -0.13 0.24 -0.39 0.43 -0.60 0.43 -0.32 0 -0.32 0.04 -0.04 0.22 0.45 0.30 2.14 0.19 2.48 -0.15 0.37 -0.37 0.54 -0.37 0.54 0.02 0 0.17 0.19 0.37 0.41 0.45 0.26 0.06 0.39 0.26 0.32 0.43 -0.06 0.17 -0.26 0.24 -0.43 0.17 -0.32 -0.11 -0.39 0.11 -0.17 0.67 0.11 0.28 0.17 0.28 0.43 0.04 0.15 -0.17 0.47 -0.26 0.69 -0.19 0.32 0.09 0.17 0.32 -0.93 1.42 -2.55 2.57 -5.20 6.56 -6.19 9.34 -0.43 1.21 -0.52 1.32 -1.08 1.29 -0.32 0 -0.60 -0.09 -0.60 -0.17z m-10.74 -4.14 c0.54 0.35 0.82 0.28 0.60 -0.13 -0.11 -0.19 -0.13 -0.43 -0.06 -0.52 0.06 -0.06 -0.02 -0.13 -0.24 -0.13 -0.19 0 -0.32 -0.09 -0.26 -0.19 0.15 -0.22 -0.63 -0.17 -1.21 0.09 -0.47 0.19 -0.54 1.01 -0.06 0.84 0.17 -0.09 0.32 -0.22 0.32 -0.32 0 -0.11 0.26 -0.17 0.60 -0.17 0.47 0.02 0.50 0.06 0.11 0.13 -0.26 0.04 -0.52 0.24 -0.58 0.43 -0.11 0.28 -0.09 0.30 0.17 0.09 0.19 -0.15 0.45 -0.19 0.60 -0.11z m6.95 -0.88 c0.06 -0.19 0 -0.32 -0.19 -0.32 -0.35 0 -0.58 0.30 -0.39 0.52 0.22 0.22 0.45 0.15 0.58 -0.19z"/>
 </g>
</svg>